<?xml version="1.0" encoding="utf-8"?>
<!-- Generator: Adobe Illustrator 27.8.0, SVG Export Plug-In . SVG Version: 6.00 Build 0)  -->
<svg fill="#fff" version="1.1" id="Layer_1" xmlns="http://www.w3.org/2000/svg" xmlns:xlink="http://www.w3.org/1999/xlink" x="0px" y="0px"
	 width="685.199px" height="220.885px" viewBox="0 0 685.199 220.885" enable-background="new 0 0 685.199 220.885"
	 xml:space="preserve">
<g>
	<g>
		<path d="M18.333,164.795L0,2.06c0,0,24.307,0,24.307,0c0.758,0.026,9.985,134.894,12.152,133.278
			c0.002,0,12.567-133.278,12.567-133.278H73.54L52.94,164.795H18.333z"/>
		<path d="M152.023,164.795V128.54h-19.981v36.255H108.97v-130.6C108.97,4.326,115.15,0,141.517,0
			c27.604,0,34.195,4.738,34.195,34.195v130.6H152.023z M132.042,34.195v74.982h19.981V34.195c0-11.124-1.647-12.978-10.094-12.978
			C133.484,21.217,132.042,23.071,132.042,34.195z"/>
		<path d="M246.983,164.795h-23.689V2.06c28.58,2.219,73.894-11.561,67.769,33.165c0.766,15.848,0.896,38.044-14.624,39.343
			c7.242,4.029,15.136,6.088,14.627,25.34c0.001-0.001,0.001,64.887,0.001,64.887h-23.896V96.199
			c1.993-14.694-10.737-11.456-20.188-11.741V164.795z M246.983,65.712c28.462,2.732,18.383-10.018,20.188-30.488
			c2.045-15.839-9.944-12.174-20.188-12.565V65.712z"/>
		<path d="M388.088,21.835h-17.715v142.959h-23.689V21.835h-17.922V2.06h59.326V21.835z"/>
		<path d="M469.042,164.795V128.54h-19.981v36.255h-23.071v-130.6C425.989,4.326,432.169,0,458.536,0
			c27.603,0,34.194,4.738,34.194,34.195v130.6H469.042z M449.061,34.195v74.982h19.981V34.195c0-11.124-1.648-12.978-10.094-12.978
			C450.502,21.217,449.061,23.071,449.061,34.195z"/>
		<path d="M564.002,164.795h-23.689V2.06c28.58,2.219,73.894-11.561,67.769,33.165c0.766,15.848,0.896,38.044-14.624,39.343
			c7.243,4.029,15.136,6.088,14.627,25.34c0.001-0.001,0.001,64.887,0.001,64.887h-23.896V96.199
			c1.993-14.694-10.737-11.456-20.188-11.741V164.795z M564.002,65.712c28.463,2.732,18.383-10.017,20.188-30.488
			c2.045-15.839-9.944-12.174-20.188-12.565V65.712z"/>
		<path d="M679.563,164.795h-23.689V2.06h23.689V164.795z"/>
	</g>
	<g>
		<path d="M480.645,178.036c35.287,1.607,26.043,49.101-7.812,42.156v-42.156H480.645z M475.219,180.511v37.237
			C508.571,222.838,508.58,175.401,475.219,180.511z"/>
		<path d="M527.695,205.584h-7.87v14.608h-2.386v-42.156c20.299-4.825,34.204,18.041,12.85,27.16l9.719,14.996h-2.921
			L527.695,205.584z M519.825,180.451v22.718C544.388,207.301,544.384,176.303,519.825,180.451z"/>
		<path d="M557.873,178.036v42.156h-2.385v-42.156H557.873z"/>
		<path d="M576.929,178.036l28.024,39.265v-39.265h2.385v42.156c-3.95,4.507-29.077-37.406-31.035-38.34v38.34h-2.385v-42.156
			H576.929z"/>
		<path d="M642.465,178.036l-10.941,15.831l18.425,26.325c-3.044,3.273-18.457-23.415-19.945-24.357l-4.531,6.499v17.858h-2.386
			v-42.156h2.386v20.184C627.144,196.999,639.162,175.156,642.465,178.036z"/>
		<path d="M673.446,196.849c-20.479-4.742-2.975-31.105,7.542-13.565l-2.146,0.835c-2.292-6.687-12.98-4.876-12.729,2.296
			c1.466,10.426,20.357,8.857,19.019,21.764c-1.537,22.639-31.783,8.335-22.567,1.222
			C669.774,232.557,696.915,205.281,673.446,196.849z"/>
	</g>
</g>
</svg>
